<svg id="Capa_1" data-name="Capa 1" xmlns="http://www.w3.org/2000/svg" viewBox="0 0 1600 900"><defs><style>.cls-1{opacity:0.05;}.cls-2{fill:#c6c6c6;}</style></defs><title>Nuevesita</title><g class="cls-1"><rect class="cls-2" x="-84.44" y="451.49" width="1325.24" height="7.44" transform="translate(-152.46 542.84) rotate(-45.05)"/><rect class="cls-2" x="-118.98" y="451.49" width="1325.24" height="7.44" transform="translate(-162.6 518.39) rotate(-45.05)"/><rect class="cls-2" x="-153.52" y="451.49" width="1325.24" height="7.44" transform="translate(-172.74 493.95) rotate(-45.05)"/><rect class="cls-2" x="-188.06" y="451.49" width="1325.24" height="7.44" transform="translate(-182.88 469.5) rotate(-45.05)"/><rect class="cls-2" x="-222.6" y="451.49" width="1325.24" height="7.44" transform="translate(-193.02 445.05) rotate(-45.05)"/><rect class="cls-2" x="-257.14" y="451.49" width="1325.24" height="7.44" transform="translate(-203.16 420.61) rotate(-45.05)"/><rect class="cls-2" x="-291.68" y="451.49" width="1325.24" height="7.44" transform="translate(-213.3 396.16) rotate(-45.05)"/><rect class="cls-2" x="-326.22" y="451.49" width="1325.24" height="7.44" transform="translate(-223.43 371.71) rotate(-45.05)"/><rect class="cls-2" x="-360.77" y="451.49" width="1325.24" height="7.44" transform="translate(-233.57 347.27) rotate(-45.05)"/><rect class="cls-2" x="-395.31" y="451.49" width="1325.24" height="7.44" transform="translate(-243.71 322.82) rotate(-45.05)"/><rect class="cls-2" x="-429.85" y="451.49" width="1325.24" height="7.44" transform="translate(-253.85 298.37) rotate(-45.05)"/><rect class="cls-2" x="-464.39" y="451.49" width="1325.24" height="7.44" transform="translate(-263.99 273.93) rotate(-45.05)"/><rect class="cls-2" x="-498.93" y="451.49" width="1325.24" height="7.44" transform="translate(-274.13 249.48) rotate(-45.05)"/><rect class="cls-2" x="-533.47" y="451.49" width="1325.24" height="7.44" transform="translate(-284.27 225.03) rotate(-45.05)"/><rect class="cls-2" x="537.3" y="451.49" width="1325.24" height="7.44" transform="translate(30.05 982.88) rotate(-45.05)"/><rect class="cls-2" x="502.76" y="451.49" width="1325.24" height="7.44" transform="translate(19.91 958.43) rotate(-45.05)"/><rect class="cls-2" x="468.22" y="451.49" width="1325.24" height="7.44" transform="translate(9.77 933.98) rotate(-45.05)"/><rect class="cls-2" x="433.67" y="451.49" width="1325.24" height="7.44" transform="translate(-0.37 909.54) rotate(-45.05)"/><rect class="cls-2" x="399.13" y="451.49" width="1325.24" height="7.44" transform="translate(-10.51 885.09) rotate(-45.05)"/><rect class="cls-2" x="364.59" y="451.49" width="1325.24" height="7.44" transform="translate(-20.65 860.64) rotate(-45.05)"/><rect class="cls-2" x="330.05" y="451.49" width="1325.24" height="7.44" transform="translate(-30.79 836.2) rotate(-45.05)"/><rect class="cls-2" x="295.51" y="451.49" width="1325.24" height="7.44" transform="translate(-40.93 811.75) rotate(-45.05)"/><rect class="cls-2" x="260.97" y="451.49" width="1325.24" height="7.44" transform="translate(-51.07 787.3) rotate(-45.05)"/><rect class="cls-2" x="226.43" y="451.49" width="1325.24" height="7.44" transform="translate(-61.21 762.86) rotate(-45.05)"/><rect class="cls-2" x="191.89" y="451.49" width="1325.24" height="7.44" transform="translate(-71.35 738.41) rotate(-45.05)"/><rect class="cls-2" x="917.25" y="451.49" width="1325.24" height="7.44" transform="translate(141.58 1251.79) rotate(-45.05)"/><rect class="cls-2" x="882.71" y="451.49" width="1325.24" height="7.44" transform="translate(131.44 1227.34) rotate(-45.05)"/><rect class="cls-2" x="848.17" y="451.49" width="1325.24" height="7.44" transform="translate(121.3 1202.9) rotate(-45.05)"/><rect class="cls-2" x="813.62" y="451.49" width="1325.24" height="7.44" transform="translate(111.16 1178.45) rotate(-45.05)"/><rect class="cls-2" x="779.08" y="451.49" width="1325.24" height="7.44" transform="translate(101.02 1154) rotate(-45.05)"/><rect class="cls-2" x="744.54" y="451.49" width="1325.24" height="7.44" transform="translate(90.88 1129.56) rotate(-45.05)"/><rect class="cls-2" x="710" y="451.49" width="1325.24" height="7.44" transform="translate(80.74 1105.11) rotate(-45.05)"/><rect class="cls-2" x="675.46" y="451.49" width="1325.24" height="7.44" transform="translate(70.6 1080.66) rotate(-45.05)"/><rect class="cls-2" x="640.92" y="451.49" width="1325.24" height="7.44" transform="translate(60.47 1056.22) rotate(-45.05)"/><rect class="cls-2" x="606.38" y="451.49" width="1325.24" height="7.44" transform="translate(50.33 1031.77) rotate(-45.05)"/><rect class="cls-2" x="571.84" y="451.49" width="1325.24" height="7.44" transform="translate(40.19 1007.32) rotate(-45.05)"/><rect class="cls-2" x="157.35" y="451.49" width="1325.24" height="7.44" transform="translate(-81.48 713.96) rotate(-45.05)"/><rect class="cls-2" x="122.81" y="451.49" width="1325.24" height="7.44" transform="translate(-91.62 689.52) rotate(-45.05)"/><rect class="cls-2" x="88.27" y="451.49" width="1325.24" height="7.44" transform="translate(-101.76 665.07) rotate(-45.05)"/><rect class="cls-2" x="1297.2" y="451.49" width="1325.24" height="7.44" transform="translate(253.11 1520.7) rotate(-45.05)"/><rect class="cls-2" x="1262.66" y="451.49" width="1325.24" height="7.44" transform="translate(242.97 1496.25) rotate(-45.05)"/><rect class="cls-2" x="1228.11" y="451.49" width="1325.24" height="7.44" transform="translate(232.83 1471.81) rotate(-45.05)"/><rect class="cls-2" x="1193.57" y="451.49" width="1325.24" height="7.44" transform="translate(222.69 1447.36) rotate(-45.05)"/><rect class="cls-2" x="1159.03" y="451.49" width="1325.24" height="7.44" transform="translate(212.55 1422.91) rotate(-45.05)"/><rect class="cls-2" x="1124.49" y="451.49" width="1325.24" height="7.44" transform="translate(202.42 1398.47) rotate(-45.05)"/><rect class="cls-2" x="1089.95" y="451.49" width="1325.24" height="7.44" transform="translate(192.28 1374.02) rotate(-45.05)"/><rect class="cls-2" x="1055.41" y="451.49" width="1325.24" height="7.44" transform="translate(182.14 1349.58) rotate(-45.05)"/><rect class="cls-2" x="1020.87" y="451.49" width="1325.24" height="7.44" transform="translate(172 1325.13) rotate(-45.05)"/><rect class="cls-2" x="986.33" y="451.49" width="1325.24" height="7.44" transform="translate(161.86 1300.68) rotate(-45.05)"/><rect class="cls-2" x="951.79" y="451.49" width="1325.24" height="7.44" transform="translate(151.72 1276.24) rotate(-45.05)"/><rect class="cls-2" x="1400.82" y="451.49" width="1325.24" height="7.44" transform="translate(283.53 1594.04) rotate(-45.05)"/><rect class="cls-2" x="1366.28" y="451.49" width="1325.24" height="7.44" transform="translate(273.39 1569.59) rotate(-45.05)"/><rect class="cls-2" x="1331.74" y="451.49" width="1325.24" height="7.44" transform="translate(263.25 1545.15) rotate(-45.05)"/><rect class="cls-2" x="53.73" y="451.49" width="1325.24" height="7.44" transform="translate(-111.9 640.62) rotate(-45.05)"/><rect class="cls-2" x="19.18" y="451.49" width="1325.24" height="7.44" transform="translate(-122.04 616.18) rotate(-45.05)"/><rect class="cls-2" x="-15.36" y="451.49" width="1325.24" height="7.44" transform="translate(-132.18 591.73) rotate(-45.05)"/><rect class="cls-2" x="-49.9" y="451.49" width="1325.24" height="7.44" transform="translate(-142.32 567.29) rotate(-45.05)"/></g><g class="cls-1"><rect class="cls-2" x="-1122.17" y="451.49" width="1325.24" height="7.44" transform="translate(-457.08 -191.63) rotate(-45.05)"/><rect class="cls-2" x="-742.22" y="451.49" width="1325.24" height="7.44" transform="translate(-345.55 77.29) rotate(-45.05)"/><rect class="cls-2" x="-776.77" y="451.49" width="1325.24" height="7.44" transform="translate(-355.69 52.84) rotate(-45.05)"/><rect class="cls-2" x="-811.31" y="451.49" width="1325.24" height="7.44" transform="translate(-365.83 28.39) rotate(-45.05)"/><rect class="cls-2" x="-845.85" y="451.49" width="1325.24" height="7.44" transform="translate(-375.97 3.95) rotate(-45.05)"/><rect class="cls-2" x="-880.39" y="451.49" width="1325.24" height="7.44" transform="translate(-386.11 -20.5) rotate(-45.05)"/><rect class="cls-2" x="-914.93" y="451.49" width="1325.24" height="7.44" transform="translate(-396.25 -44.95) rotate(-45.05)"/><rect class="cls-2" x="-949.47" y="451.49" width="1325.24" height="7.44" transform="translate(-406.39 -69.39) rotate(-45.05)"/><rect class="cls-2" x="-984.01" y="451.49" width="1325.24" height="7.44" transform="translate(-416.52 -93.84) rotate(-45.05)"/><rect class="cls-2" x="-1018.55" y="451.49" width="1325.24" height="7.44" transform="translate(-426.66 -118.29) rotate(-45.05)"/><rect class="cls-2" x="-1053.09" y="451.49" width="1325.24" height="7.44" transform="translate(-436.8 -142.73) rotate(-45.05)"/><rect class="cls-2" x="-1087.63" y="451.49" width="1325.24" height="7.44" transform="translate(-446.94 -167.18) rotate(-45.05)"/><rect class="cls-2" x="-569.52" y="451.49" width="1325.24" height="7.44" transform="translate(-294.85 199.52) rotate(-45.05)"/><rect class="cls-2" x="-604.06" y="451.49" width="1325.24" height="7.44" transform="translate(-304.99 175.07) rotate(-45.05)"/><rect class="cls-2" x="-638.6" y="451.49" width="1325.24" height="7.44" transform="translate(-315.13 150.62) rotate(-45.05)"/><rect class="cls-2" x="-673.14" y="451.49" width="1325.24" height="7.44" transform="translate(-325.27 126.18) rotate(-45.05)"/><rect class="cls-2" x="-707.68" y="451.49" width="1325.24" height="7.44" transform="translate(-335.41 101.73) rotate(-45.05)"/></g></svg>